<svg id="Layer_1" data-name="Layer 1" xmlns="http://www.w3.org/2000/svg" viewBox="0 0 300 109.86"><defs><style>.cls-1{fill:#3f1ca2;}.cls-2{fill:#fff;}.cls-3{fill:#df98e2;}</style></defs><rect class="cls-1" width="300" height="109.86"/><g id="_33841f96-3065-4e7c-99df-514faeb223a0" data-name="33841f96-3065-4e7c-99df-514faeb223a0"><path class="cls-2" d="M96.62,164.54H100v-8.9h.2a5,5,0,0,0,4.82,3.09c3.73,0,6.16-2.87,6.16-8.35S108.73,142,105,142a5,5,0,0,0-4.82,3.1H100V142.4H96.62Zm7-8.57c-2,0-3.63-1-3.63-2.94V147.7c0-1.94,1.68-2.94,3.63-2.94,2.54,0,4,1.7,4,4.31v2.61C107.61,154.27,106.15,156,103.61,156Zm20.55-6.9-2,5.48H122l-2-5.48-2.54-6.67H114l6.43,15.73-1.46,3.69h-3.78v2.72h2.7a4.26,4.26,0,0,0,4.51-3.09l7.73-19h-3.4Zm24.22,6.37h-11.8l11.36-15.63v-3.05H133.22v2.9h10.92l-11.36,15.62v3.07h15.6Zm10.78,3.29c4.38,0,7-1.95,7-5.17s-2.78-4.16-5.33-4.51l-2.52-.42c-1.34-.18-2.45-.55-2.45-1.9s1.17-2.14,3.38-2.14a6,6,0,0,1,4.8,1.92l1.88-2a8.5,8.5,0,0,0-6.57-2.5c-4.08,0-6.8,1.73-6.8,5s2.83,4.18,5.32,4.56l2.54.39c1.35.2,2.44.56,2.44,1.93,0,1.57-1.49,2.3-3.65,2.3a6.93,6.93,0,0,1-5.48-2.37l-2.06,1.86C153.2,157.51,155.74,158.73,159.16,158.73Zm19.14,0a6.57,6.57,0,0,0,6.43-3.8l-2.47-1.53a4.09,4.09,0,0,1-3.94,2.54c-2.63,0-4.09-1.74-4.09-4.24v-2.65c0-2.54,1.48-4.24,4-4.24a3.58,3.58,0,0,1,3.6,2.41l2.63-1.42a6.27,6.27,0,0,0-6.23-3.78c-4.71,0-7.54,3.25-7.54,8.36S173.53,158.73,178.3,158.73Zm26-.38V155.7h-2v-8c0-3.65-2.48-5.66-6.5-5.66-3.38,0-5.55,1.46-6.45,3.18l2,1.64a4.53,4.53,0,0,1,4.13-2.19c2.28,0,3.43,1.11,3.43,3.25v1.24h-3.08c-4.72,0-7,1.66-7,4.75s2.1,4.84,5.35,4.84c2.52,0,4.18-1.15,4.79-3.07h.16a2.81,2.81,0,0,0,3.07,2.69Zm-9.13-2.1c-1.81,0-2.92-.75-2.92-2.16v-.62c0-1.44,1.18-2.21,3.65-2.21h3v2.32C198.9,155.17,197.33,156.25,195.16,156.25Zm12.71,2.1h13.94v-2.71h-5.28V135.46h-8.66v2.72h5.28v17.46h-5.28Zm25.85.38c3.3,0,5.53-1.46,6.61-3.32l-2.12-1.85a4.9,4.9,0,0,1-4.42,2.45,4.1,4.1,0,0,1-4.42-4.29v-.5h11.45v-1.29c0-4.7-2.85-7.91-7.34-7.91S226,145.27,226,150.4,228.84,158.73,233.72,158.73Zm-.24-14.14c2.37,0,3.91,1.63,3.91,4.15v.31h-8v-.22A4,4,0,0,1,233.48,144.59ZM245,158.35h13.41v-2.71h-5.79v-6a3.9,3.9,0,0,1,4.2-4.07H260v-3.2h-1.92c-3.25,0-4.64,2-5.26,4.22h-.18V142.4H245v2.72h4.24v10.52H245Z" transform="translate(0 -94.12)"/></g><g id="c9ffb223-e7fa-4a01-8a28-584f28abde6b"><path class="cls-3" d="M81.81,140.91H70.9V130a23.71,23.71,0,0,0-18.18,0v10.91H41.81a23.71,23.71,0,0,0,0,18.18H52.72V170a23.71,23.71,0,0,0,18.18,0V159.09H81.81A23.71,23.71,0,0,0,81.81,140.91ZM52.72,153.64v1.81H44.39a20,20,0,0,1,0-10.9H61.81v-3.64H56.35v-8.33a20.23,20.23,0,0,1,5.47-.76,20,20,0,0,1,5.44.76v13.78a1.81,1.81,0,0,1-1.82,1.82H58.17A5.45,5.45,0,0,0,52.72,153.64Zm26.51,1.81H61.81v3.64h5.45v8.33a19.92,19.92,0,0,1-10.9,0V153.64a1.81,1.81,0,0,1,1.81-1.82h7.27a5.46,5.46,0,0,0,5.46-5.46v-1.81h8.33A19.8,19.8,0,0,1,79.23,155.45Z" transform="translate(0 -94.12)"/><circle class="cls-3" cx="60.9" cy="42.25" r="1.82"/><circle class="cls-3" cx="62.72" cy="69.51" r="1.82"/></g></svg>